<svg xmlns="http://www.w3.org/2000/svg" version="1.1" xmlns:xlink="http://www.w3.org/1999/xlink" xmlns:svgjs="http://svgjs.dev/svgjs" width="1000" height="623" viewBox="0 0 1000 623"><g transform="matrix(1,0,0,1,-0.6060606060606233,0.2522267206477409)"><svg viewBox="0 0 396 247" data-background-color="#ffffff" preserveAspectRatio="xMidYMid meet" height="623" width="1000" xmlns="http://www.w3.org/2000/svg" xmlns:xlink="http://www.w3.org/1999/xlink"><g id="tight-bounds" transform="matrix(1,0,0,1,0.2400000000000091,-0.09999999999999432)"><svg viewBox="0 0 395.52 247.2" height="247.2" width="395.52"><g><svg></svg></g><g><svg viewBox="0 0 395.52 247.2" height="247.2" width="395.52"><g transform="matrix(1,0,0,1,125.32886459627328,47.215199999999996)"><svg viewBox="0 0 144.86227080745343 152.7696" height="152.7696" width="144.86227080745343"><g><svg viewBox="0 0 144.86227080745343 152.7696" height="152.7696" width="144.86227080745343"><g><svg viewBox="0 0 144.86227080745343 152.7696" height="152.7696" width="144.86227080745343"><g><svg viewBox="0 0 144.86227080745343 152.7696" height="152.7696" width="144.86227080745343"><g id="textblocktransform"><svg viewBox="0 0 144.86227080745343 152.7696" height="152.7696" width="144.86227080745343" id="textblock"><g><svg viewBox="0 0 144.86227080745343 152.7696" height="152.7696" width="144.86227080745343"><g transform="matrix(1,0,0,1,0,0)"><svg width="144.86227080745343" viewBox="1.559999942779541 -35.380001068115234 33.54999923706055 35.380001068115234" height="152.7696" data-palette-color="#3d3839"><path d="M9.74-0.2L9.74-0.78Q9.74-0.98 9.96-0.98L9.96-0.98 10.64-0.98Q13.04-0.98 14.49-2 15.94-3.03 15.94-4.39L15.94-4.39 15.94-31.42Q15.94-31.93 15.73-31.99 15.53-32.06 15.23-32.1L15.23-32.1 5.86-32.1Q3.59-31.62 2.88-28.61L2.88-28.61Q2.49-27 2.42-26.55 2.34-26.1 2.15-26.1L2.15-26.1 1.71-26.1Q1.56-26.1 1.56-26.2L1.56-26.2 1.56-27 2.47-34.62Q2.61-35.38 2.95-35.38 3.3-35.38 3.69-34.9 4.08-34.42 5.18-34.42L5.18-34.42 31.49-34.42Q32.54-34.42 32.76-34.67 32.98-34.91 33.18-35.14 33.37-35.38 33.68-35.38 33.98-35.38 34.07-35.13 34.16-34.89 34.2-34.62L34.2-34.62 35.11-27 35.11-26.2Q35.11-26.1 34.96-26.1L34.96-26.1 34.52-26.1Q34.33-26.1 34.25-26.46L34.25-26.46Q33.86-28.91 33.13-30.33 32.4-31.76 30.81-32.1L30.81-32.1 21.41-32.1Q21.12-32.06 20.91-31.99 20.7-31.93 20.7-31.42L20.7-31.42 20.7-4.39Q20.7-3.03 22.16-2 23.61-0.98 26-0.98L26-0.98 26.71-0.98Q26.9-0.98 26.9-0.78L26.9-0.78 26.9-0.2Q26.9 0 26.71 0L26.71 0 9.94 0Q9.74 0 9.74-0.2L9.74-0.2Z" opacity="1" transform="matrix(1,0,0,1,0,0)" fill="#3d3839" class="wordmark-text-0" data-fill-palette-color="primary" id="text-0"></path></svg></g></svg></g></svg></g></svg></g></svg></g></svg></g></svg></g><path d="M87.89 41.215L87.89 0 335.09 0 335.09 247.2 87.89 247.2 87.89 205.985 101.667 205.985 101.667 233.423 321.313 233.423 321.313 13.777 101.667 13.777 101.667 41.215Z" fill="#3d3839" stroke="transparent" data-fill-palette-color="primary"></path></svg></g><defs></defs></svg><rect width="395.52" height="247.2" fill="none" stroke="none" visibility="hidden"></rect></g></svg></g></svg>